<svg xmlns="http://www.w3.org/2000/svg" width="100" height="100">
<g fill="none" stroke="#ffffff" stroke-opacity="0.08" stroke-width="2">
<path d="M0 50 L 100 50"></path>
<path d="M50 0 L 50 100"></path>
<path d="M0 25 L 100 25"></path>
<path d="M0 75 L 100 75"></path>
<path d="M25 0 L 25 100"></path>
<path d="M75 0 L 75 100"></path>
<path d="M25 58 L 50 25"></path>
<path d="M25 50 L 55 20"></path>
<path d="M60 0 L 60 20"></path>
<path d="M80 0 L 80 20"></path>
<path d="M100 40 L 80 40"></path>
<path d="M100 60 L 80 60"></path>
<path d="M0 40 L 20 40"></path>
<path d="M0 60 L 20 60"></path>
<path d="M40 100 L 40 80"></path>
<path d="M60 100 L 60 80"></path>
</g>
</svg>
